Coordinates
version=1
nRows=17
nColumns=36
inDegrees=yes

Units are S.I. units (second, meters, Newtons, ...)
If the header above contains a line with 'inDegrees', this indicates whether rotational values are in degrees (yes) or radians (no).

endheader
time	pelvis_tilt	pelvis_list	pelvis_rotation	pelvis_tx	pelvis_ty	pelvis_tz	hip_flexion_r	hip_adduction_r	hip_rotation_r	knee_angle_r	knee_angle_r_beta	ankle_angle_r	subtalar_angle_r	mtp_angle_r	hip_flexion_l	hip_adduction_l	hip_rotation_l	knee_angle_l	knee_angle_l_beta	ankle_angle_l	subtalar_angle_l	mtp_angle_l	lumbar_extension	lumbar_bending	lumbar_rotation	arm_flex_r	arm_add_r	arm_rot_r	elbow_flex_r	pro_sup_r	arm_flex_l	arm_add_l	arm_rot_l	elbow_flex_l	pro_sup_l
      0.00000000	      0.30023989	     -0.02416541	     -1.15170417	     -0.84869566	      1.26338415	     -0.10256298	     -2.53238945	      0.87548422	      1.31367900	      5.93582876	      0.10359976	      0.95457870	    -13.54088411	     -5.75212206	     -3.73847106	      0.46211513	     -0.05018308	      3.27539477	      0.05716642	      8.83254275	     -3.39043832	     -5.75212206	    -12.64594510	      2.22537870	     -2.00795056	     11.93647995	     -9.81150544	     26.97108824	     24.44961076	     71.15021833	      5.34235007	     -9.35155222	     19.06117585	     25.36957929	     63.58933790
      0.00416670	     -1.97812056	      0.07251764	     -0.72206281	     -0.84809978	      1.25999258	     -0.10242104	     -0.40826465	      1.22737519	      1.96744311	      5.36242380	      0.09359195	      2.02109408	    -10.61220614	     -5.89809878	     -1.58777031	      0.90025128	      0.98253585	      2.51469746	      0.04388975	      7.60388110	     -2.22768400	     -5.89809878	     -9.11991936	      2.14614074	     -2.13879064	     10.75882994	     -9.48628777	     25.39387716	     24.49219985	     70.82546454	      4.76811223	     -9.03067020	     18.47995087	     25.33212191	     63.54300354
      0.00833330	     -2.54112586	      0.50941131	     -0.74524550	     -0.84799940	      1.25898178	     -0.10201729	     -0.17398088	      0.86934537	      1.41001810	      4.31902673	      0.07538124	      2.25305718	    -10.43945258	     -6.06996191	     -1.21103563	      1.45171202	      0.97330975	      2.12043505	      0.03700857	      7.23500183	     -1.92829757	     -6.06996191	     -8.52482705	      1.26548929	     -1.99337928	     10.25359053	     -8.77025083	     23.27651724	     24.74322259	     70.25102675	      5.07843404	     -9.17855922	     17.68040928	     25.13312007	     63.41674030
      0.01250000	     -2.47433458	      0.70359935	     -0.59446376	     -0.84791307	      1.25771839	     -0.10198380	     -0.46950560	      0.67228438	      1.52387439	      3.70666230	      0.06469346	      2.63502179	    -10.09978736	     -6.40840479	     -1.67704417	      1.78890410	      1.63720309	      1.33586464	      0.02331524	      6.81323339	     -2.46369573	     -6.40840479	     -8.68851114	      0.76535998	     -1.76422559	      9.57363726	     -8.28196777	     20.15077872	     25.28450263	     69.28836182	      5.45191563	     -9.22248557	     16.41454337	     24.98964163	     63.16120081
      0.01666670	     -2.40985738	      0.82186548	     -0.57664674	     -0.84698923	      1.25989006	     -0.10200727	     -0.84678547	      0.61061488	      1.92121902	      3.11579126	      0.05438082	      2.61477514	    -10.48621529	     -7.23328977	     -1.98411180	      1.96855083	      1.88825192	      0.92230062	      0.01609718	      6.86877047	     -2.42004368	     -7.23328977	     -8.95112860	      0.50887379	     -0.97717833	      8.24308621	     -7.67057827	     12.51954089	     26.86130862	     80.00697381	      5.87358402	     -9.01220528	     14.51378018	     24.93750042	     67.82252044
      0.02083330	     -2.21375678	      0.88410444	     -0.58976016	     -0.84817172	      1.25896737	     -0.10128136	     -1.15013571	      0.56290542	      2.42626414	      2.83601090	      0.04949773	      2.55008983	    -10.98999452	     -7.32394019	     -2.21570019	      2.05397849	      2.38605333	      0.75390179	      0.01315807	      7.04913122	     -2.80281607	     -7.32394019	     -9.37902649	      0.37252805	     -0.71721769	      8.26224911	     -7.81129003	     13.36179282	     27.28497705	     77.12682466	      6.17613779	     -9.04082853	     14.15853365	     25.10319132	     66.54917840
      0.02500000	     -2.08273090	      0.94021940	     -0.53743318	     -0.84866045	      1.26134406	     -0.10141406	     -1.43309197	      0.49009041	      2.60836457	      2.54290213	      0.04438201	      2.12842633	    -11.44414163	     -7.40149991	     -2.37264085	      2.12041462	      2.72762320	      0.65410665	      0.01141631	      7.03957248	     -2.79702122	     -7.40149991	     -9.68879045	      0.27704777	     -0.59522761	      8.39872184	     -7.96472704	     14.66055946	     27.46017305	     73.25317275	      6.43163052	     -9.00931638	     13.98291171	     25.18143905	     64.94467441
      0.02916670	     -2.04359473	      0.95227796	     -0.56231898	     -0.84848782	      1.26045178	     -0.10131275	     -1.54953016	      0.48463446	      2.92846413	      2.34900434	      0.04099786	      1.80555177	    -11.94145137	     -7.43028574	     -2.40330542	      2.13066013	      3.12434445	      0.62123579	      0.01084261	      6.97982805	     -3.29235249	     -7.43028574	     -9.82711700	      0.29387045	     -0.53629019	      8.71746315	     -8.24095979	     16.35456232	     27.27421788	     73.64393302	      6.61126451	     -9.06107628	     14.31161128	     25.13337745	     65.38897612
      0.03333330	     -1.97598009	      0.94566993	     -0.59327151	     -0.84957291	      1.25807086	     -0.10070038	     -1.66340058	      0.48189147	      3.18014146	      2.25658531	      0.03938484	      1.52499416	    -12.32053431	     -7.49088085	     -2.47496982	      2.10114930	      3.33893601	      0.61378188	      0.01071251	      7.01574157	     -3.34672467	     -7.49088085	    -10.03855930	      0.29300314	     -0.43522582	      8.78727444	     -8.31432704	     16.09564699	     27.43192301	     76.76467358	      6.74918654	     -9.01847203	     13.56367192	     25.29569582	     67.72676288
      0.03750000	     -1.77729521	      0.91205973	     -0.56557082	     -0.84902780	      1.25858086	     -0.10022744	     -1.97257507	      0.53733199	      3.49120161	      2.14063195	      0.03736108	      1.15934919	    -12.64836583	     -7.49559679	     -2.68750249	      2.05294686	      3.78509852	      0.59919703	      0.01045796	      6.97356396	     -3.64957817	     -7.49559679	    -10.41425246	      0.30833272	     -0.34878324	      8.90943717	     -8.63707254	     17.82413448	     27.81766088	     72.59793312	      6.86311159	     -9.14636529	     14.09236556	     25.72105355	     65.63074540
      0.04166670	     -1.75663443	      0.88726878	     -0.56374825	     -0.84913973	      1.25905974	     -0.10069595	     -2.02441648	      0.56852721	      3.70701550	      2.06019132	      0.03595712	      0.92189321	    -12.84049377	     -7.49833131	     -2.72533491	      1.99520024	      3.82985084	      0.59509199	      0.01038631	      6.97726203	     -3.55710846	     -7.49833131	    -10.45258120	      0.35115179	     -0.25899150	      8.98692194	     -8.81946305	     18.84294467	     27.85191390	     69.55886790	      6.95198828	     -9.17224355	     14.39737384	     25.78227633	     64.21304530
      0.04583330	     -1.87089089	      0.83606467	     -0.56891667	     -0.84872890	      1.25912150	     -0.10077945	     -1.93486919	      0.61857413	      4.01110136	      1.99725384	      0.03485866	      0.47177628	    -13.33419593	     -7.49962873	     -2.61809513	      1.93501478	      4.23761633	      0.60389607	      0.01053997	      6.78807921	     -3.97271513	     -7.49962873	    -10.28866480	      0.45131688	     -0.24197478	      8.98771645	     -8.81982065	     17.86204448	     27.65410849	     76.29483821	      6.91436314	     -9.16554937	     13.97916046	     25.67169878	     68.08528804
      0.05000000	     -1.90467503	      0.79468903	     -0.61398541	     -0.84853959	      1.25907763	     -0.10092900	     -1.90353739	      0.65314362	      4.35946685	      1.91966510	      0.03350448	      0.29033310	    -13.65805447	     -7.49979469	     -2.59841513	      1.87488188	      4.43705257	      0.59308898	      0.01035136	      6.71274981	     -4.14973210	     -7.49979469	    -10.23733306	      0.51585435	     -0.21753899	      9.09509927	     -9.04927865	     19.19959820	     27.68330685	     73.51405153	      6.93846837	     -9.29104324	     14.85203444	     25.79572381	     66.72481767
      0.05416670	     -1.74951302	      0.70579388	     -0.63774955	     -0.84852103	      1.25772244	     -0.10097629	     -2.13148432	      0.73000427	      4.24372048	      1.88338206	      0.03287122	      0.11975209	    -13.70427214	     -7.49994868	     -2.77797844	      1.77958730	      4.58927654	      0.57187046	      0.00998102	      6.77686204	     -4.11638489	     -7.49994868	    -10.45536799	      0.63699817	     -0.16883540	      9.09962531	     -9.26766048	     20.03440134	     28.13759365	     68.20186488	      6.95479744	     -9.28469390	     15.01359718	     26.19916244	     63.88961505
      0.05833330	     -1.76403049	      0.70061645	     -0.65420168	     -0.84721850	      1.25717265	     -0.10147921	     -2.16541924	      0.72886587	      4.24165284	      1.89269370	      0.03303374	      0.11800884	    -13.70549535	     -7.49994869	     -2.76426399	      1.77885338	      4.59345568	      0.57177023	      0.00997927	      6.77663603	     -4.11490730	     -7.49994869	    -10.45434340	      0.63673911	     -0.16915713	      9.10180190	     -9.26951601	     20.03437784	     28.13733434	     68.20308103	      6.95648658	     -9.28467591	     15.01418306	     26.19976185	     63.89044586
      0.06250000	     -1.81410591	      0.55363823	     -0.66574384	     -0.84803844	      1.25674369	     -0.09991751	     -2.11651657	      0.93156061	      4.22729203	      1.89018646	      0.03298998	      0.02409767	    -13.87665737	     -7.49994903	     -2.74682609	      1.61443919	      4.86786828	      0.54713463	      0.00954930	      6.93994019	     -4.15300098	     -7.49994903	    -10.26770129	      0.86154379	     -0.08332240	      9.09111621	     -9.42940219	     20.09505138	     28.08128079	     68.38955498	      6.89509367	     -9.24078664	     15.12885496	     26.28005840	     64.02205891
      0.06666670	     -1.93811010	      0.52297265	     -0.70031973	     -0.84757722	      1.25951549	     -0.09958502	     -2.00649427	      1.01426679	      4.39659022	      1.88059126	      0.03282251	     -0.39527904	    -14.51765570	     -7.49997484	     -2.62877463	      1.57075548	      5.08072417	      0.54516481	      0.00951492	      6.72281024	     -4.39330122	     -7.49997484	    -10.06215142	      0.89640530	      0.02033603	      8.99134332	     -9.35371388	     18.74938042	     27.91034688	     76.19917291	      6.82940237	     -9.33410320	     14.82359303	     26.32485952	     69.48875232
